<svg width="24" height="24" viewBox="0 0 24 24" fill="none" xmlns="http://www.w3.org/2000/svg">
<g clip-path="url(#clip0_1540_13274)">
<path d="M18.364 5.63603C17.5829 4.85498 16.3166 4.85498 15.5355 5.63603L12 9.17156L8.46447 5.63602C7.68342 4.85498 6.41709 4.85498 5.63604 5.63603C4.85499 6.41707 4.85499 7.6834 5.63604 8.46445L9.17157 12L5.63604 15.5355C4.85499 16.3166 4.85499 17.5829 5.63604 18.3639C6.41709 19.145 7.68342 19.145 8.46447 18.3639L12 14.8284L15.5355 18.3639C16.3166 19.145 17.5829 19.145 18.364 18.3639C19.145 17.5829 19.145 16.3166 18.364 15.5355L14.8284 12L18.364 8.46445C19.145 7.6834 19.145 6.41707 18.364 5.63603Z" stroke="white" stroke-width="2" stroke-linejoin="round"/>
</g>
<defs>
<clipPath id="clip0_1540_13274">
<rect width="24" height="24" fill="white"/>
</clipPath>
</defs>
</svg>
