<svg width="24" height="24" viewBox="0 0 24 24" fill="none" xmlns="http://www.w3.org/2000/svg">
<path d="M9 13C11.2091 13 13 11.2091 13 8.99999C13 6.79085 11.2091 4.99999 9 4.99999C6.79086 4.99999 5 6.79085 5 8.99999C5 11.2091 6.79086 13 9 13ZM9 13C9 13 3 14 3 20H15C15 14 9 13 9 13ZM15.9529 6.288C16.57 6.89274 16.9529 7.73545 16.9529 8.66755C16.9529 9.57569 16.5894 10.399 16 11M19.2747 12.9102C20.3615 11.8247 21.0337 10.3246 21.0337 8.66755C21.0337 7.00641 20.3582 5.50299 19.2667 4.41687" stroke="white" stroke-width="2" stroke-linecap="round" stroke-linejoin="round"/>
</svg>
